<?xml version="1.0" encoding="utf-8"?>
<!-- Generator: Adobe Illustrator 24.3.0, SVG Export Plug-In . SVG Version: 6.00 Build 0)  -->
<svg version="1.1" id="Layer_1" xmlns="http://www.w3.org/2000/svg" xmlns:xlink="http://www.w3.org/1999/xlink" x="0px" y="0px"
	 viewBox="0 0 800 800" style="enable-background:new 0 0 800 800;" xml:space="preserve">
<style type="text/css">
	.st0{fill:none;stroke:#000000;stroke-width:10;stroke-miterlimit:10;}
</style>
<circle class="st0" cx="391.4" cy="405.1" r="128.1"/>
<g>
	<path d="M344.3,400.7c2.7-0.5,4.5-0.7,5.6-0.6c1.1,0.2,1.6,0.5,1.7,1.1c0.1,0.6-0.3,1.3-1,2.1c-0.8,0.8-1.5,1.5-2.2,2.2
		c-4,3.1-8.4,5.4-13.3,6.8c-4.9,1.4-9.9,2.1-15.1,1.8c-5.3-0.2-10.3-1.2-15-3c-4.7-1.8-8.1-4.7-10.3-8.7c-1.8-3.2-3-6.5-3.7-9.9
		c-0.6-3.4-0.9-6.8-0.7-10.2c0.2-3.4,0.7-6.6,1.7-9.6c1-3,2.2-5.8,3.7-8.1c2.2-3.4,5.1-6.4,8.6-9.1c3.5-2.6,7.3-4.8,11.5-6.5
		c4.2-1.7,8.6-3,13.2-3.8c4.6-0.8,9.2-1.1,13.8-1c4.6,0.1,9,0.7,13.2,1.7c4.2,1,8,2.5,11.4,4.6c7.4,4.4,12.7,10.4,16,18
		c3.3,7.6,3.6,16.7,1,27.4c2.4-2.7,5.1-6.3,8.3-10.7c3.2-4.5,6.6-9.1,10.1-14c3.5-4.8,7.1-9.5,10.7-14.1c3.6-4.6,7-8.4,10.1-11.4
		c1.1-1.1,2.6-1.4,4.7-1.1c2,0.3,4,1.1,5.9,2.2c1.9,1.2,3.3,2.7,4.3,4.7c1,1.9,1,4,0.1,6.3c-1.6,3.6-3.5,8.1-5.7,13.3
		c-2.2,5.2-4.4,10.6-6.7,16.1c-2.3,5.5-4.4,10.8-6.4,15.9c-2,5.1-3.5,9.3-4.6,12.8c6.1-7.5,12.4-15.1,18.8-22.9
		c6.4-7.8,12.5-15.1,18.3-21.9c5.8-6.8,10.9-13,15.5-18.4c4.5-5.4,8-9.5,10.4-12.4c0.7-1,2.2-1.3,4.3-1c2.1,0.3,4.1,1.1,5.9,2.4
		c1.9,1.3,3.3,2.9,4.3,4.8c1,1.9,0.7,4-0.8,6.3c-3.1,4.9-6.4,10.6-9.9,17.2c-3.5,6.5-7,13.3-10.5,20.5c-3.5,7.1-6.8,14.3-10,21.5
		c-3.2,7.2-6,14-8.4,20.5c-2.4,6.4-4.4,12.2-5.9,17.3c-1.5,5.1-2.2,9.1-2.2,12c0.6,0.2,1.3,0.3,1.9,0.4c0.6,0,1.3,0.1,1.8,0.1
		c0.6,0,1.1,0,1.5,0.1c0.4,0.1,0.7,0.2,0.8,0.6c0.1,0.3,0,0.9-0.4,1.6c-0.4,0.7-0.9,1.5-1.5,2.2c-0.6,0.8-1.4,1.4-2.3,1.9
		c-0.9,0.5,2.2,2.2,1.3,2.2c-0.9,0-6-1.7-7.1-2.4c-1.2-0.6-2.3-1.6-3.4-3c-1.1-1.3-2.1-3-2.8-5.1c-0.8-2-1.2-4.4-1.3-7.2
		c-0.1-5.1,0.5-10.8,1.9-17.1c1.4-6.3,3.3-12.8,5.6-19.7c2.4-6.8,5.1-13.7,8.2-20.6c3.1-6.9,6.3-13.6,9.6-20
		c-6.5,8.5-12.7,16.6-18.6,24.3c-5.9,7.8-11.2,14.9-16,21.3c-4.8,6.5-8.9,12.1-12.4,16.9c-3.4,4.8-6,8.5-7.7,11.1
		c-1.2,1.2-2.4,1.4-3.5,0.8c-1.2-0.6-2.2-1.7-3.1-3.1c-0.9-1.4-1.7-3.1-2.2-5.1c-0.6-1.9-0.9-3.6-0.9-5c0-3.2,0.6-7.4,1.8-12.7
		c1.2-5.2,2.9-11,4.9-17.3c2-6.3,4.3-12.9,6.9-19.7c2.6-6.8,5.2-13.6,8-20.2c-2.1,3-5,7.2-8.5,12.5c-3.5,5.3-7.5,11.3-12,17.7
		c-4.4,6.5-9.3,13.1-14.5,20c-5.2,6.8-10.6,13.3-16.1,19.3c-5.5,6-11.1,11.3-16.8,15.9c-5.7,4.5-11.2,7.7-16.5,9.5
		c-2.5,0.9-4.9,1.4-7.3,1.7c-2.4,0.3-4.7,0.3-6.7,0c-2.1-0.3-3.9-0.8-5.4-1.6c-1.5-0.8-2.6-2-3.2-3.5c-0.1-0.3-0.2-0.7-0.2-1.2
		c-0.1-0.5,0-0.9,0.2-1.2c0.2-0.3,0.6-0.5,1.3-0.6c0.6-0.1,1.6,0.1,2.9,0.6c2.5,0.9,5.7-0.1,9.9-2.8c4.1-2.7,8.6-6.5,13.3-11.4
		c4.8-4.9,9.5-10.5,14.4-16.9c4.8-6.4,9.1-12.9,12.8-19.6c3.7-6.6,6.7-13,8.8-19.3c2.1-6.2,2.9-11.6,2.4-16c-0.6-2-2.1-3.8-4.5-5.3
		c-2.4-1.5-5.2-2.7-8.7-3.5c-3.4-0.9-7.2-1.4-11.5-1.5c-4.2-0.2-8.5,0-12.9,0.6c-3.5,0.4-7.2,1.3-11.2,2.6
		c-3.9,1.3-7.6,2.8-11.2,4.7c-3.5,1.8-6.7,3.9-9.4,6.1c-2.7,2.2-4.6,4.6-5.7,7c-1.1,2.4-1.1,4.9-0.2,7.4c1,2.5,3.4,4.9,7.2,7.3
		c1.1,0.6,2.7,1.4,4.9,2.3c2.2,0.9,4.9,1.7,8.2,2.3c3.3,0.6,7,1.1,11.2,1.3C334.6,401.8,339.2,401.5,344.3,400.7z"/>
	<path d="M474.2,448.6c-0.5,0-1.4,0.6-2.7,1.8c-2,1.6-4.3,3.2-6.8,4.8c-2.5,1.6-4.9,2.9-7.3,4c-2.4,1.1-4.6,1.8-6.6,2.3
		c-2,0.5-3.6,0.4-4.7-0.1c-1.2-0.5-1.9-1.7-2.2-3.4c0-0.2,0-0.5-0.1-0.7c-3.3,0.6-4-3.1-7.3-2.5c0.1,0.3-2.7,4.9-2.6,5.1
		c1.2,2.4,2.6,4.4,4.3,6.1c1.7,1.6,3.5,2.9,5.4,3.7c1.9,0.9,3.5,1.3,4.9,1.4c3.7,0.4,7.1-0.1,10-1.5c2.9-1.4,5.4-3.1,7.5-5.1
		c2.1-2,3.8-4,5.1-6c1.3-2,2.1-3.4,2.6-4.2c0.3-0.6,0.5-1.4,0.8-2.3c0.3-0.9,0.4-1.7,0.4-2.4C475,448.9,474.7,448.6,474.2,448.6z"/>
</g>
</svg>
